<?xml version="1.0" encoding="UTF-8"?>
<svg width="752pt" height="752pt" version="1.1" viewBox="0 0 752 752" xmlns="http://www.w3.org/2000/svg">
 <g>
  <path d="m479.24 168.72c-3.9297-0.023438-7.707 1.5156-10.5 4.2812s-4.3711 6.5273-4.3867 10.457c-0.011718 3.9219 1.5273 7.6875 4.2852 10.473 2.7578 2.7852 6.5078 4.3633 10.43 4.3867l53.156 0.26172-122.38 122.7v-0.003906c-2.7812 2.7812-4.3398 6.5547-4.3359 10.484 0.007813 3.9336 1.5781 7.6992 4.3633 10.473 2.7812 2.7812 6.5547 4.3398 10.484 4.332 3.9336-0.003906 7.6992-1.5742 10.473-4.3633l122.7-123.05-0.14844 54.051v0.003906c-0.007812 3.9258 1.543 7.6953 4.3125 10.477 2.7695 2.7773 6.5312 4.3438 10.457 4.3516 3.9258 0.007813 7.6914-1.543 10.473-4.3125 2.7812-2.7695 4.3477-6.5312 4.3555-10.457l0.23047-89.258c0.007813-3.9141-1.5352-7.6719-4.293-10.453-2.7578-2.7773-6.5039-4.3516-10.418-4.375z"/>
  <path d="m265.04 487.05c59.176 59.176 136.88 95.863 190.51 96.082 24.066 1.4688 44.707-7.5938 62.156-19.438 17.57-11.926 32.867-26.645 48.316-38.875 20.562-16.273 23.199-47.641 4.375-66.469l-48.031-48.031c-24.973-24.973-67.375-20.547-86.641 9.0547l-10.262 15.777c-26.895-9.3789-53.375-23.977-69.082-39.488-21.254-21.191-29.707-41.867-39.57-68.961l15.902-10.344c29.602-19.266 34.027-61.672 9.0547-86.641l-48.031-48.031c-18.824-18.824-50.191-16.188-66.469 4.375-12.23 15.449-26.949 30.75-38.875 48.316-11.844 17.445-20.906 38.09-19.438 62.156 0.21875 53.637 36.91 131.34 96.082 190.51zm20.93-20.93c-52.93-52.93-83.949-112.5-87.543-171.09-1.0664-15.965 4.5273-29.379 14.473-44.027 9.9453-14.648 24.191-29.617 37.586-46.539 5.9805-7.5586 15.785-8.3711 22.32-1.8398l48.031 48.031c12.137 12.137 10.109 31.539-4.2734 40.898l-26.059 16.945c-5.75 3.7383-8.1758 10.938-5.8672 17.395 12.016 33.543 22.23 62.219 47.863 87.672 25.625 25.461 59.602 44.109 94.598 54.172 6.2539 1.7969 12.945-0.69922 16.496-6.1523l16.945-26.059c9.3594-14.379 28.762-16.406 40.898-4.2695l48.031 48.031c6.5352 6.5352 5.7188 16.336-1.8398 22.32-16.922 13.395-31.891 27.641-46.539 37.586-14.648 9.9453-28.062 15.543-44.027 14.473-63.383-6.8711-117.19-35.219-171.09-87.539z"/>
 </g>
</svg>
