<?xml version="1.0" encoding="UTF-8"?>
<svg width="752pt" height="752pt" version="1.1" viewBox="0 0 752 752" xmlns="http://www.w3.org/2000/svg">
 <path d="m571.12 480.66-53.988-53.988c-9.4727-9.9453-20.363-14.68-32.203-14.68-11.84 0-23.207 5.2109-32.676 14.68l-31.73 31.73c-2.8398-1.4219-5.6836-2.8398-8.5234-4.2617-3.7891-1.8945-7.1055-3.3164-9.9453-5.2109-29.363-18.469-55.883-43.098-81.457-74.352-12.785-16.102-21.312-29.363-27.469-43.57 8.5234-7.5781 16.102-15.629 23.68-23.207 2.8398-2.8398 5.6836-5.6836 8.5234-8.5234 9.9453-9.9453 15.156-21.312 15.156-33.152s-5.2109-23.207-15.156-33.152l-26.992-26.992c-3.3164-3.3164-6.1562-6.1562-8.9961-9.4727-6.1562-6.1562-12.312-12.312-18.469-17.996-9.4727-9.4727-20.363-14.207-32.203-14.207-11.84 0-22.73 4.7344-32.676 14.207l-33.625 33.625c-12.312 12.312-19.418 27.469-20.836 44.988-1.9023 22.262 1.8867 44.992 12.305 72.934 15.629 43.098 39.781 82.875 75.301 125.5 43.098 51.148 94.715 91.875 153.91 120.29 22.73 10.891 52.566 23.207 86.191 25.574h6.1562c22.258 0 41.203-8.0508 55.883-24.152 0 0 0.47266-0.47266 0.47266-0.47266 5.2109-6.1562 10.891-11.84 17.523-17.996 4.2617-4.2617 8.5234-8.5234 12.785-12.785 18.945-19.895 18.945-45.941-0.94531-65.355zm-17.051 49.727c-3.7891 4.2617-7.5781 8.0508-11.84 11.84-6.1562 6.1562-12.785 12.312-18.941 19.418-10.418 10.891-22.258 16.102-38.359 16.102h-4.7344c-29.363-1.8945-56.828-13.262-77.668-23.207-55.41-26.996-104.66-65.828-145.39-114.13-33.625-40.254-56.355-78.141-71.039-118.39-8.9961-24.625-12.785-44.043-11.367-62.512 0.94531-11.84 5.6836-21.785 14.207-30.309l33.625-33.625c5.2109-4.7344 10.891-7.5781 16.102-7.5781 5.2109 0 10.891 2.3672 15.629 7.5781 6.1562 5.6836 11.84 11.367 17.996 17.523 2.8398 3.3164 6.1562 6.1562 9.4727 9.4727l26.992 26.992c5.6836 5.6836 8.0508 10.891 8.0508 16.102 0 5.2109-2.8398 10.891-8.0508 16.102-2.8398 2.8398-5.6836 5.6836-8.5234 8.5234-8.5234 8.5234-16.102 16.574-24.625 24.152l-0.47266 0.47266c-7.5781 7.5781-6.6289 15.156-4.7344 20.836 0 0.47266 0 0.47266 0.47266 0.94531 7.1055 16.574 16.574 32.676 31.73 51.621 26.992 33.625 55.883 59.199 87.141 79.562 3.7891 2.3672 8.0508 4.7344 11.84 6.6289 3.7891 1.8945 7.1055 3.3164 9.9453 5.2109 0.47266 0 0.47266 0.47266 0.94531 0.47266 3.3164 1.4219 6.1562 2.3672 8.9961 2.3672 7.5781 0 12.312-4.7344 13.734-6.6289l33.625-33.625c5.2109-5.2109 10.418-7.5781 16.102-7.5781 6.6289 0 11.84 4.2617 15.629 7.5781l54.461 54.461c12.785 13.738 6.6289 25.578-0.94922 33.629zm43.57-359.92-146.34 146.34h85.719c6.6289 0 11.84 5.2109 11.84 11.84 0 6.6289-5.2109 11.84-11.84 11.84h-114.13c-6.6289 0-11.84-5.2109-11.84-11.84v-114.13c0-6.6289 5.2109-11.84 11.84-11.84 6.6289 0 11.84 5.2109 11.84 11.84v85.715l146.34-146.34c4.7344-4.7344 12.312-4.7344 16.574 0 4.7383 4.7383 4.7383 12.312 0 16.578z"/>
</svg>
